<svg width="53" height="37" viewBox="0 0 53 37" fill="none" xmlns="http://www.w3.org/2000/svg">
<path d="M12.9102 3.54867C14.2703 1.70024 16.2945 0.464915 18.5473 0.108245C22.2559 -0.461498 25.6192 1.25109 27.4925 4.46216C28.3991 6.01622 29.18 7.55012 29.996 9.15517C31.1372 11.37 32.2671 13.5908 33.3857 15.8175L37.3894 23.7526L38.6469 26.2332C38.8541 26.6392 39.1547 27.1848 39.3376 27.5907C40.0758 29.0538 41.0353 31.2673 42.5835 31.9967C43.0098 32.2664 43.549 32.3856 44.0473 32.3036C44.2095 32.2769 44.3256 32.153 44.4541 32.0569L44.5 32.0932C44.4643 32.1985 44.214 32.6632 44.1553 32.7732C43.5588 33.8915 42.7116 34.9143 41.5888 35.5219C40.307 36.2124 38.805 36.3562 37.4175 35.9213C35.2142 35.2241 34.5201 33.8701 33.547 31.951L32.4204 29.7284L28.4965 22.0506L27.8559 22.3048C28.0552 22.0349 28.2364 22.2121 28.3518 21.9865C28.2754 21.6799 28.0866 21.4053 27.9731 21.1123C27.7571 20.5545 27.51 20.0573 27.2161 19.536C26.0671 17.1643 24.748 14.723 23.5303 12.3817C22.5363 10.4704 21.2747 7.93645 20.0343 6.20596C19.4467 5.18584 18.4118 3.93333 17.3858 3.35938C16.2148 2.70433 15.29 2.63441 14.0346 2.98785C13.5768 3.08356 13.241 3.43267 12.9102 3.54867Z" fill="url(#paint0_linear_330_166)"/>
<path d="M14.0345 2.98771C15.29 2.63427 16.2148 2.7042 17.3858 3.35925C18.4118 3.93319 19.4466 5.18571 20.0342 6.20583C19.3383 6.85125 18.9081 7.70444 18.4361 8.52118C18.3123 8.73542 18.1429 9.07276 18.0093 9.2607C17.2593 10.6898 16.4641 12.0902 15.6957 13.5084L11.0544 22.0889L9.17318 25.5587C8.52927 26.7442 7.612 28.1834 7.5363 29.5443C7.13049 31.7759 8.7499 34.5676 10.9704 35.0576C11.132 35.0932 11.5439 35.1584 11.7283 35.2182C12.3447 35.0832 14.1818 33.631 14.5436 33.5318C14.3094 33.7554 13.7771 34.1189 13.4933 34.3109C11.8976 35.3904 10.0753 36.1929 8.1456 36.3574C6.04417 36.5365 3.84081 35.9275 2.22435 34.5261C0.933198 33.4137 0.136868 31.8253 0.0132438 30.1157C-0.0486965 29.1373 0.107178 28.1572 0.46935 27.2475C0.653763 26.7942 1.09285 25.9838 1.32493 25.5302L3.00807 22.2561L8.36226 11.9518C9.38671 9.99549 10.4209 8.04443 11.465 6.09868C11.704 5.65289 12.6546 3.84213 12.9101 3.54854C13.241 3.43253 13.5768 3.08342 14.0345 2.98771Z" fill="#12346D"/>
<path d="M14.0344 2.98771C15.2899 2.63427 16.2147 2.7042 17.3857 3.35925C18.4117 3.93319 19.4465 5.18571 20.0341 6.20583C19.3382 6.85125 18.908 7.70444 18.436 8.52118C18.3121 8.73542 18.1428 9.07276 18.0092 9.2607C18.1267 8.56287 19.1792 7.30253 19.4012 6.73524C18.0952 6.85926 15.4886 3.94017 14.8092 2.86551C14.5591 2.90344 14.2556 3.01725 14.0344 2.98771Z" fill="#12346D"/>
<path d="M27.2161 19.536C27.51 20.0573 27.7572 20.5544 27.9732 21.1123C28.0866 21.4052 28.2754 21.6799 28.3519 21.9865C28.2365 22.2121 28.0553 22.0349 27.856 22.3048C27.2926 22.5928 26.6569 22.8868 26.1194 23.2164C23.5566 24.7879 21.273 26.9069 19.197 29.0754C17.9678 30.3592 16.7689 31.6503 15.4256 32.8145C15.2397 32.9756 14.7312 33.4261 14.5437 33.5318C14.1818 33.631 12.3448 35.0833 11.7284 35.2182C11.5439 35.1585 11.1321 35.0933 10.9705 35.0576C8.74997 34.5677 7.13057 31.776 7.53638 29.5443C7.85472 30.8696 8.7979 31.4662 10.0867 31.4849C13.4385 31.5337 16.4055 28.3819 18.6068 26.2248C19.4831 25.3566 20.3813 24.5112 21.3004 23.6894C22.966 22.2083 25.1985 20.5056 27.2161 19.536Z" fill="url(#paint1_linear_330_166)"/>
<path d="M38.8188 11.6176C39.1988 10.6446 39.8763 10.1207 40.8334 9.73565C43.5703 8.63449 46.7633 8.19264 49.5677 9.2591C52.5489 10.3925 53.7672 13.1376 52.5073 16.0905C52.1937 16.8267 51.7861 17.5266 51.4291 18.2517L48.5014 24.0834L45.8454 29.4227C45.5409 30.0366 44.8265 31.5769 44.5001 32.0936L44.4542 32.0572C44.3257 32.1533 44.2096 32.2773 44.0474 32.3039C43.5492 32.3859 43.0099 32.2668 42.5836 31.997C41.0355 31.2677 40.076 29.0542 39.3377 27.591C39.5211 27.2892 39.684 26.879 39.8754 26.5451L39.8971 26.481C40.0564 26.0251 40.6868 24.87 40.9334 24.3554C42.0084 22.118 43.1378 19.9035 44.2215 17.6707C44.7259 16.6316 45.3246 15.5501 45.5782 14.4239C45.8791 13.0877 45.2829 11.6402 43.9417 11.1849C42.7933 10.7949 41.4515 11.0028 40.2962 11.2667C39.8478 11.3718 39.2547 11.5748 38.8188 11.6176Z" fill="url(#paint2_linear_330_166)"/>
<defs>
<linearGradient id="paint0_linear_330_166" x1="23.6008" y1="29.9507" x2="34.1062" y2="5.37161" gradientUnits="userSpaceOnUse">
<stop stop-color="#12346D"/>
<stop offset="0.971154" stop-color="#163B79"/>
<stop offset="1" stop-color="#2456A9"/>
</linearGradient>
<linearGradient id="paint1_linear_330_166" x1="16.245" y1="24.0438" x2="20.09" y2="29.671" gradientUnits="userSpaceOnUse">
<stop stop-color="#12346D"/>
<stop offset="1" stop-color="#12346D"/>
</linearGradient>
<linearGradient id="paint2_linear_330_166" x1="37.018" y1="26.5196" x2="52.0794" y2="11.0964" gradientUnits="userSpaceOnUse">
<stop stop-color="#12346D"/>
<stop offset="1" stop-color="#487FDD"/>
</linearGradient>
</defs>
</svg>
